# xmcd
#
# Track frame offsets:
#	150
#	16332
#	29935
#	46402
#	64855
#	81158
#	98500
#	115015
#	127786
#	139792
#	151462
#	165788
#	179941
#	196592
#	210817
#	225799
#	241828
#
# Disc length: 3478
#
# Revision: 1
# Processed by: cddbd v1.5.1PL0 Copyright (c) Steve Scherf et al.
# Submitted via: VisiTrax 2.9.5.180 - For more info visit www.synapsa.com
# Normalized: r0:DSETVAR1
#
DISCID=cb0d9411
DTITLE=Various Artist - CDX 220 August 1999
DYEAR=1999
DGENRE=
TTITLE0=Randy Travis - A man ain't made out of stone
TTITLE1=Doug Supernaw - Fadin' renegade
TTITLE2=Tamara Walker - Giants
TTITLE3=Paul Brandt - It's a beautiful thing
TTITLE4=Lace - I want a man
TTITLE5=Brooks and Dunn - Missing you
TTITLE6=Sonya Isaacs - On my way to you
TTITLE7=Dave Holladay - Pull up a pillow
TTITLE8=Matt King - Rub it in
TTITLE9=David Crawford - Shagging in Dixieland
TTITLE10=Kenny Rogers - Slow dance more
TTITLE11=Tim McGraw - Something like that
TTITLE12=Ty Herndon - Steam
TTITLE13=Bellamy Brothers - The ex-files
TTITLE14=Terry Lee Goffee - Hey heart
TTITLE15=Philip Claypool - Perfect world
TTITLE16=Lisa Angelle - I wear your love
EXTD=
EXTT0=
EXTT1=
EXTT2=
EXTT3=
EXTT4=
EXTT5=
EXTT6=
EXTT7=
EXTT8=
EXTT9=
EXTT10=
EXTT11=
EXTT12=
EXTT13=
EXTT14=
EXTT15=
EXTT16=
PLAYORDER=
